<?xml version="1.0" encoding="UTF-8" ?>
<!DOCTYPE svg PUBLIC "-//W3C//DTD SVG 1.1//EN" "http://www.w3.org/Graphics/SVG/1.1/DTD/svg11.dtd">
<svg width="170pt" height="50pt" viewBox="0 0 170 50" version="1.1" xmlns="http://www.w3.org/2000/svg">
<g id="#ffffff">
<path fill="#ffffff" opacity="1.00" d=" M 10.43 5.54 C 17.88 2.22 27.19 3.49 33.47 8.72 C 32.57 10.25 31.67 11.79 30.78 13.34 C 26.07 9.12 18.88 7.44 12.98 10.00 C 9.01 11.85 8.37 18.37 12.50 20.41 C 18.63 23.40 26.08 23.05 31.70 27.22 C 35.30 29.84 35.88 34.88 34.84 38.92 C 33.70 42.99 29.88 45.72 25.92 46.67 C 17.68 48.45 8.64 46.68 2.05 41.30 C 2.97 39.71 3.88 38.12 4.79 36.52 C 10.44 41.36 18.83 43.92 25.95 41.06 C 29.98 39.52 30.44 33.24 26.64 31.16 C 20.38 27.49 12.24 28.21 6.53 23.45 C 1.23 18.27 3.94 8.45 10.43 5.54 Z" />
<path fill="#ffffff" opacity="1.00" d=" M 43.24 4.01 C 54.91 3.99 66.58 4.00 78.25 4.01 C 78.25 5.67 78.25 7.33 78.25 8.99 C 73.34 9.01 68.42 8.99 63.50 9.00 C 63.51 21.66 63.49 34.32 63.52 46.98 C 61.68 46.98 59.84 46.99 58.00 47.01 C 58.00 34.34 58.00 21.67 58.00 9.00 C 53.08 8.99 48.16 9.01 43.24 8.99 C 43.25 7.33 43.25 5.67 43.24 4.01 Z" />
<path fill="#ffffff" opacity="1.00" d=" M 98.45 4.01 C 100.00 4.01 101.54 4.01 103.09 4.00 C 105.96 11.00 108.83 18.00 111.71 25.00 C 109.90 24.99 108.09 24.98 106.27 24.99 C 104.43 20.33 102.71 15.62 100.76 11.01 C 98.79 15.64 96.99 20.33 95.11 25.00 C 93.35 24.99 91.60 25.00 89.85 25.00 C 92.69 17.99 95.60 11.01 98.45 4.01 Z" />
<path fill="#ffffff" opacity="1.00" d=" M 129.01 21.94 C 130.19 12.87 137.60 4.44 147.04 3.83 C 154.35 2.88 161.99 6.49 165.35 13.16 C 163.88 14.20 162.41 15.23 160.94 16.26 C 157.47 8.94 146.98 6.47 140.75 11.71 C 131.53 18.91 132.73 35.44 143.34 40.76 C 149.69 44.02 157.20 40.92 161.48 35.74 C 161.48 33.75 161.49 31.75 161.50 29.76 C 158.50 29.76 155.50 29.75 152.51 29.75 C 152.50 28.34 152.50 26.92 152.50 25.50 C 157.16 25.49 161.83 25.49 166.50 25.50 C 166.51 32.67 166.50 39.83 166.50 47.00 C 164.83 46.99 163.16 46.99 161.49 47.00 C 161.50 45.26 161.51 43.52 161.52 41.77 C 157.37 45.63 151.69 48.16 145.94 47.04 C 134.63 45.23 127.19 32.89 129.01 21.94 Z" />
<path fill="#ffffff" opacity="1.00" d=" M 88.06 30.08 C 96.62 29.87 105.19 30.07 113.75 30.00 C 116.05 35.66 118.44 41.29 120.66 46.99 C 118.60 47.00 116.53 46.99 114.47 46.91 C 112.97 42.71 111.21 38.61 109.50 34.49 C 103.63 34.52 97.76 34.49 91.89 34.51 C 90.24 38.68 88.56 42.84 86.90 47.01 C 84.88 47.00 82.86 46.99 80.83 46.98 C 83.27 41.39 85.12 35.35 88.06 30.08 Z" />
</g>
</svg>
