<svg xmlns="http://www.w3.org/2000/svg" xmlns:xlink="http://www.w3.org/1999/xlink" version="1.1" x="0px" y="0px" viewBox="0 0 100 125" enable-background="new 0 0 100 100" xml:space="preserve" fill="#ffffff"><g display="none"><rect x="69.285" y="56.429" display="inline" width="6.43" height="6.429"/><rect x="88.571" y="88.571" display="inline" width="6.429" height="6.429"/><rect x="43.571" y="82.143" display="inline" width="6.429" height="6.429"/><rect x="50" y="75.714" display="inline" width="6.429" height="6.429"/><rect x="56.429" y="69.286" display="inline" width="6.429" height="6.428"/><rect x="62.857" y="62.857" display="inline" width="6.428" height="6.429"/><rect x="56.429" y="56.429" display="inline" width="6.429" height="6.429"/><rect x="50" y="50" display="inline" width="6.429" height="6.429"/><rect x="43.571" y="43.571" display="inline" width="6.429" height="6.429"/><rect x="37.143" y="37.143" display="inline" width="6.429" height="6.429"/><rect x="30.715" y="43.571" display="inline" width="6.428" height="6.429"/><rect x="24.285" y="50" display="inline" width="6.43" height="6.429"/><rect x="17.857" y="56.429" display="inline" width="6.428" height="6.429"/><rect x="11.429" y="62.857" display="inline" width="6.429" height="6.429"/><rect x="11.429" y="69.286" display="inline" width="6.429" height="6.428"/><rect x="5" y="75.714" display="inline" width="6.429" height="6.429"/><rect x="5" y="82.143" display="inline" width="6.429" height="6.429"/><rect x="5" y="88.571" display="inline" width="6.429" height="6.429"/><rect x="11.429" y="88.571" display="inline" width="6.429" height="6.429"/><rect x="75.715" y="62.857" display="inline" width="6.428" height="6.429"/><rect x="82.143" y="69.286" display="inline" width="6.429" height="6.428"/><rect x="88.571" y="75.714" display="inline" width="6.429" height="6.429"/><rect x="88.571" y="82.143" display="inline" width="6.429" height="6.429"/><rect x="82.143" y="88.571" display="inline" width="6.429" height="6.429"/><rect x="75.715" y="88.571" display="inline" width="6.428" height="6.429"/><rect x="69.285" y="88.571" display="inline" width="6.43" height="6.429"/><rect x="62.857" y="88.571" display="inline" width="6.428" height="6.429"/><rect x="56.429" y="88.571" display="inline" width="6.429" height="6.429"/><rect x="50" y="88.571" display="inline" width="6.429" height="6.429"/><rect x="43.571" y="88.571" display="inline" width="6.429" height="6.429"/><rect x="47.144" y="88.571" display="inline" width="6.428" height="6.429"/><rect x="40.714" y="88.571" display="inline" width="6.43" height="6.429"/><rect x="34.286" y="88.571" display="inline" width="6.428" height="6.429"/><rect x="27.857" y="88.571" display="inline" width="6.429" height="6.429"/><rect x="21.429" y="88.571" display="inline" width="6.429" height="6.429"/><rect x="15" y="88.571" display="inline" width="6.429" height="6.429"/></g><g><path d="M26.086,70.914l22.499,22.499c0.093,0.094,0.196,0.177,0.307,0.251c0.047,0.032,0.099,0.053,0.148,0.081   c0.064,0.036,0.127,0.075,0.195,0.103c0.065,0.027,0.133,0.042,0.2,0.062c0.058,0.017,0.113,0.04,0.173,0.051   c0.259,0.051,0.524,0.051,0.783,0c0.06-0.012,0.115-0.034,0.173-0.051c0.067-0.02,0.135-0.035,0.2-0.062   c0.068-0.028,0.131-0.067,0.195-0.103c0.05-0.027,0.102-0.049,0.148-0.081c0.11-0.074,0.214-0.157,0.307-0.251l22.499-22.499   c0.781-0.781,0.781-2.047,0-2.828C73.523,67.695,73.012,67.5,72.5,67.5s-1.023,0.195-1.414,0.586L52,87.172V7c0-1.104-0.896-2-2-2   s-2,0.896-2,2v80.172L28.914,68.086C28.523,67.695,28.012,67.5,27.5,67.5s-1.023,0.195-1.414,0.586   C25.305,68.867,25.305,70.133,26.086,70.914z"/></g></svg>