<svg xmlns="http://www.w3.org/2000/svg" xmlns:xlink="http://www.w3.org/1999/xlink" version="1.1" x="0px" y="0px" viewBox="0 0 100 125" enable-background="new 0 0 100 100" xml:space="preserve" fill="#ffffff"><g display="none"><rect x="45" y="5" display="inline" width="10" height="10"/><rect x="55" y="5" display="inline" width="10" height="10"/><rect x="65" y="15" display="inline" width="10" height="10"/><rect x="75" y="25" display="inline" width="10" height="10"/><rect x="75" y="35" display="inline" width="10" height="10"/><rect x="85" y="45" display="inline" width="10" height="10"/><rect x="85" y="55" display="inline" width="10" height="10"/><rect x="85" y="65" display="inline" width="10" height="10"/><rect x="75" y="75" display="inline" width="10" height="10"/><rect x="75" y="65" display="inline" width="10" height="10"/><rect x="75" y="55" display="inline" width="10" height="10"/><rect x="35" y="5" display="inline" width="10" height="10"/><rect x="25" y="15" display="inline" width="10" height="10"/><rect x="15" y="25" display="inline" width="10" height="10"/><rect x="15" y="35" display="inline" width="10" height="10"/><rect x="5" y="45" display="inline" width="10" height="10"/><rect x="5" y="55" display="inline" width="10" height="10"/><rect x="5" y="65" display="inline" width="10" height="10"/><rect x="15" y="75" display="inline" width="10" height="10"/><rect x="15" y="65" display="inline" width="10" height="10"/><rect x="15" y="55" display="inline" width="10" height="10"/></g><g><path d="M73.914,28.586L51.415,6.087c-0.093-0.094-0.196-0.177-0.307-0.251c-0.047-0.032-0.099-0.053-0.148-0.081   c-0.064-0.036-0.127-0.075-0.195-0.103c-0.065-0.027-0.133-0.042-0.2-0.062c-0.058-0.017-0.113-0.04-0.173-0.051   c-0.259-0.051-0.524-0.051-0.783,0c-0.06,0.012-0.115,0.034-0.173,0.051c-0.067,0.02-0.135,0.035-0.2,0.062   c-0.068,0.028-0.131,0.067-0.195,0.103c-0.05,0.027-0.102,0.049-0.148,0.081c-0.11,0.074-0.214,0.157-0.307,0.251L26.086,28.586   c-0.781,0.781-0.781,2.047,0,2.828C26.477,31.805,26.988,32,27.5,32s1.023-0.195,1.414-0.586L48,12.328V92.5c0,1.104,0.896,2,2,2   s2-0.896,2-2V12.328l19.086,19.086C71.477,31.805,71.988,32,72.5,32s1.023-0.195,1.414-0.586   C74.695,30.633,74.695,29.367,73.914,28.586z"/></g></svg>